<?xml version="1.0" standalone="no"?>
<!DOCTYPE svg PUBLIC "-//W3C//DTD SVG 20010904//EN"
 "http://www.w3.org/TR/2001/REC-SVG-20010904/DTD/svg10.dtd">
<svg version="1.0" xmlns="http://www.w3.org/2000/svg"
 width="2001.000000pt" height="1095.000000pt" viewBox="0 0 2001.000000 1095.000000"
 preserveAspectRatio="xMidYMid meet">

<g transform="translate(0.000000,1095.000000) scale(0.100000,-0.100000)"
fill="#000000" stroke="none">
<path d="M9727 10940 c-1804 -93 -3434 -1016 -4410 -2496 -264 -400 -474 -831
-623 -1282 -140 -421 -242 -948 -259 -1341 -4 -70 -8 -141 -11 -158 l-5 -33
-2204 0 -2205 0 0 -150 0 -150 9995 0 9995 0 0 150 0 150 -2204 0 -2204 0 -6
23 c-3 12 -6 52 -6 88 0 91 -27 367 -51 529 -118 785 -416 1552 -860 2213
-372 555 -868 1059 -1422 1446 -824 575 -1807 925 -2812 1000 -202 16 -523 20
-708 11z m792 -265 c1114 -112 2102 -524 2961 -1235 161 -133 517 -489 650
-650 732 -884 1135 -1904 1206 -3052 l6 -108 -5337 0 -5337 0 6 108 c60 948
341 1802 851 2577 311 473 757 947 1221 1297 837 631 1843 1003 2917 1078 174
12 675 4 856 -15z"/>
<path d="M16465 4667 c-27 -8 -64 -21 -82 -30 -64 -34 -113 -128 -113 -218 l0
-49 90 0 90 0 0 49 c0 81 62 131 144 115 56 -10 86 -53 86 -120 0 -90 -22
-118 -180 -229 -182 -126 -222 -178 -236 -297 l-7 -58 302 0 301 0 0 80 0 80
-181 0 c-168 0 -180 1 -168 17 8 9 74 61 148 116 73 55 146 118 162 139 67 94
59 260 -18 340 -60 62 -225 94 -338 65z"/>
<path d="M6311 4289 c-198 -39 -355 -156 -448 -335 -70 -134 -88 -214 -87
-389 1 -177 19 -260 85 -385 112 -215 305 -337 554 -348 301 -13 524 111 647
360 69 140 94 289 77 467 -18 191 -80 331 -204 457 -82 83 -196 145 -310 169
-76 16 -243 18 -314 4z m306 -268 c61 -27 149 -115 181 -181 37 -79 53 -158
53 -275 0 -179 -42 -295 -138 -386 -71 -67 -128 -91 -229 -97 -147 -8 -254 43
-331 157 -146 215 -111 588 68 733 20 16 62 40 95 54 52 22 71 24 154 21 71
-2 108 -9 147 -26z"/>
<path d="M13021 4285 c-240 -53 -429 -247 -491 -507 -38 -157 -22 -402 33
-533 93 -219 258 -358 477 -401 179 -35 395 -1 526 84 128 83 238 238 284 402
43 153 37 368 -15 520 -37 108 -81 177 -169 266 -92 92 -179 141 -303 168 -88
19 -253 20 -342 1z m334 -265 c180 -87 273 -339 219 -597 -30 -148 -102 -251
-212 -305 -63 -31 -73 -33 -172 -33 -94 1 -111 3 -161 28 -100 48 -181 156
-214 284 -19 74 -19 249 0 332 36 153 131 266 258 307 68 22 220 13 282 -16z"/>
<path d="M3890 3565 l0 -715 145 0 145 0 0 325 0 325 285 0 285 0 0 -325 0
-325 145 0 145 0 0 715 0 715 -145 0 -145 0 0 -270 0 -270 -285 0 -285 0 0
270 0 270 -145 0 -145 0 0 -715z"/>
<path d="M7870 3565 l0 -715 145 0 145 0 2 283 3 282 175 3 c214 4 267 -5 309
-54 17 -19 32 -36 32 -37 1 -1 5 -90 9 -197 4 -126 12 -209 21 -235 l14 -40
158 -3 157 -3 0 28 c0 17 -10 38 -25 51 -29 28 -31 38 -44 265 -12 214 -24
250 -97 297 -26 16 -56 32 -66 36 -27 8 -22 17 25 38 65 30 140 112 165 179
30 79 30 209 1 303 -18 57 -31 77 -82 129 -102 101 -87 99 -604 103 l-443 3 0
-716z m780 449 c59 -34 80 -76 80 -158 -1 -93 -24 -146 -76 -172 -35 -17 -62
-19 -264 -19 l-225 0 -3 175 c-1 96 0 181 3 188 4 11 45 13 228 10 202 -3 225
-5 257 -24z"/>
<path d="M9790 3565 l0 -715 145 0 145 0 0 715 0 715 -145 0 -145 0 0 -715z"/>
<path d="M10780 4160 l0 -120 365 0 c201 0 365 -2 365 -5 0 -2 -164 -216 -365
-474 l-365 -469 0 -121 0 -121 535 0 535 0 0 120 0 120 -360 0 c-198 0 -360 3
-360 8 0 4 162 215 360 470 l360 462 0 125 0 125 -535 0 -535 0 0 -120z"/>
<path d="M14610 3565 l0 -715 145 0 145 0 2 492 3 493 285 -490 285 -490 148
-3 147 -3 0 716 0 715 -145 0 -145 0 -2 -486 -3 -485 -283 485 -284 486 -149
0 -149 0 0 -715z"/>
</g>
</svg>
